<?xml version="1.0" standalone="no"?>
<!DOCTYPE svg PUBLIC "-//W3C//DTD SVG 20010904//EN"
 "http://www.w3.org/TR/2001/REC-SVG-20010904/DTD/svg10.dtd">
<svg version="1.0" xmlns="http://www.w3.org/2000/svg"
 width="512.000000pt" height="512.000000pt" viewBox="0 0 512.000000 512.000000"
 preserveAspectRatio="xMidYMid meet">

<g transform="translate(0.000000,512.000000) scale(0.100000,-0.100000)"
fill="#000000" stroke="none">
<path d="M2056 4215 c-274 -437 -501 -795 -506 -795 -4 0 -105 101 -223 224
-157 162 -218 220 -221 208 -65 -218 -259 -934 -272 -1007 -26 -136 -26 -458
-1 -592 64 -341 218 -653 440 -891 69 -74 188 -185 193 -179 2 2 -10 35 -25
74 -85 207 -108 444 -66 668 12 65 281 1034 289 1042 2 2 74 -71 161 -161 87
-91 161 -164 165 -161 4 2 133 205 286 450 153 244 281 445 284 445 3 0 131
-201 284 -445 153 -245 282 -448 286 -450 4 -3 78 70 165 161 87 90 159 163
161 161 8 -8 277 -977 289 -1042 42 -223 18 -463 -66 -669 -16 -39 -29 -72
-29 -74 0 -11 68 49 147 130 256 258 411 553 485 918 31 155 33 462 4 615 -13
73 -201 768 -272 1007 -3 12 -65 -46 -221 -208 -118 -123 -219 -224 -223 -224
-5 0 -232 358 -506 795 -275 437 -501 795 -504 795 -3 0 -229 -358 -504 -795z"/>
<path d="M2295 2559 l-257 -410 -111 116 c-60 64 -113 113 -117 108 -16 -17
-141 -493 -151 -573 -25 -204 39 -448 165 -623 50 -70 159 -179 226 -224 227
-154 526 -196 790 -111 134 43 236 105 344 207 203 195 307 476 277 746 -10
83 -134 559 -151 578 -4 5 -57 -44 -117 -108 l-111 -116 -257 410 c-142 226
-261 411 -265 411 -4 0 -124 -185 -265 -411z"/>
<path d="M300 1594 c-118 -32 -208 -108 -263 -223 -58 -122 -47 -312 24 -423
43 -67 120 -133 182 -157 l52 -19 27 58 c64 140 177 264 305 332 51 27 102 44
198 63 72 15 132 29 133 30 2 2 -26 45 -63 96 -36 51 -87 130 -112 176 l-47
83 -190 -1 c-135 0 -207 -5 -246 -15z"/>
<path d="M4338 1527 c-26 -46 -72 -119 -104 -162 -31 -44 -58 -84 -60 -90 -3
-6 46 -23 113 -40 70 -17 150 -45 195 -68 132 -67 251 -193 315 -335 l28 -60
52 19 c101 39 198 151 228 264 42 162 2 329 -105 435 -97 98 -175 120 -430
120 l-186 0 -46 -83z"/>
<path d="M959 976 c-207 -80 -267 -117 -322 -198 -54 -78 -70 -130 -70 -228 0
-99 29 -189 90 -278 83 -121 243 -190 385 -163 44 8 914 334 1083 406 l40 16
-110 29 c-324 83 -589 221 -847 443 -30 26 -57 47 -59 47 -2 -1 -88 -34 -190
-74z"/>
<path d="M3895 989 c-237 -206 -513 -348 -830 -429 l-110 -29 35 -14 c169 -72
1047 -401 1089 -409 140 -26 301 43 384 164 59 86 90 180 90 273 1 100 -20
166 -77 243 -58 78 -110 109 -324 192 -101 38 -184 70 -185 70 -1 -1 -33 -28
-72 -61z"/>
</g>
</svg>
